<?xml version="1.0" encoding="UTF-8"?>
<svg version="1.1" xmlns="http://www.w3.org/2000/svg" width="1024" height="1024">
<path d="M0 0 C337.92 0 675.84 0 1024 0 C1024 337.92 1024 675.84 1024 1024 C686.08 1024 348.16 1024 0 1024 C0 686.08 0 348.16 0 0 Z " fill="#FEFEFE" transform="translate(0,0)"/>
<path d="M0 0 C2.2991955 0.88586088 3.96490464 1.9782273 5.93383789 3.4597168 C7.05338867 4.2940625 7.05338867 4.2940625 8.19555664 5.14526367 C9.39438477 6.05308594 9.39438477 6.05308594 10.61743164 6.97924805 C12.33735953 8.2645705 14.05741513 9.54972207 15.77758789 10.8347168 C16.65560059 11.49391113 17.53361328 12.15310547 18.43823242 12.83227539 C22.45913821 15.8432653 26.50737881 18.81673554 30.55493164 21.79174805 C32.13841657 22.95820894 33.72174944 24.1248763 35.30493164 25.29174805 C36.48055664 26.15799805 36.48055664 26.15799805 37.67993164 27.04174805 C44.80493164 32.29174805 44.80493164 32.29174805 47.18115234 34.04272461 C48.76031844 35.20626939 50.33958236 36.36968143 51.91894531 37.53295898 C55.94186063 40.49629493 59.96291128 43.46210659 63.98071289 46.43237305 C70.97290322 51.59857737 77.96575675 56.75911003 85.05493164 61.79174805 C96.52514851 69.93626075 107.81145376 78.3378881 119.05493164 86.79174805 C131.69877111 96.29843006 144.45018375 105.65512329 157.28710938 114.89916992 C165.11901096 120.5454444 172.88583833 126.2788196 180.65063477 132.0168457 C183.06978874 133.80271587 185.49159183 135.58493087 187.91430664 137.3659668 C206.97111281 151.37798513 206.97111281 151.37798513 211.87473506 155.18352503 C215.23692208 157.76673226 218.59320739 160.16389896 222.24911213 162.31530857 C233.84506026 169.43627117 233.84506026 169.43627117 235.52481651 175.97897148 C236.27857984 180.97778713 236.13821082 185.95754787 236.01074219 190.99658203 C236.02102117 192.91504178 236.03829635 194.83347472 236.0619812 196.7518158 C236.1059273 201.93609799 236.05147655 207.11510083 235.97795844 212.29887271 C235.91684878 217.75034439 235.94465343 223.20140688 235.96186829 228.65309143 C235.97847333 237.81552771 235.93685854 246.97612868 235.85400391 256.13818359 C235.73788668 268.99381385 235.73001156 281.84783644 235.74254549 294.70389068 C235.74791012 304.75274075 235.72059302 314.80154259 235.69165039 324.8503418 C235.68915527 325.91470797 235.68666015 326.97907415 235.68408942 328.07569385 C235.66841745 334.24020396 235.63640066 340.40423961 235.58054733 346.5685215 C235.56565348 348.42218172 235.55537479 350.27588686 235.55050468 352.12960052 C235.50004799 368.55600279 234.43621423 385.46408307 229.24243164 401.16674805 C228.85450439 402.39204224 228.85450439 402.39204224 228.45874023 403.64208984 C216.19071814 441.64620797 192.6661493 472.78069834 156.86962891 491.5949707 C133.92965334 503.04830375 109.9346587 505.95981287 84.64013672 505.90527344 C82.79617311 505.90499093 80.95220939 505.90515054 79.10824585 505.90571594 C74.13177324 505.90600144 69.15532501 505.90014481 64.17885804 505.89314198 C58.96719631 505.88686715 53.75553395 505.88630139 48.54386902 505.88511658 C38.68796629 505.8820154 28.83207474 505.87381844 18.97617692 505.86376709 C5.6486215 505.85047188 -7.678937 505.84509623 -21.00649738 505.83926487 C-41.9860294 505.82987769 -62.96553785 505.80995067 -83.94506836 505.79174805 C-83.94506836 468.17174805 -83.94506836 430.55174805 -83.94506836 391.79174805 C-70.02125977 391.73567383 -70.02125977 391.73567383 -55.81616211 391.6784668 C-49.91445482 391.64816954 -44.01276667 391.61712981 -38.11108398 391.58276367 C-28.75604037 391.52842499 -19.40104985 391.47700615 -10.04589844 391.4453125 C-3.23041877 391.42220882 3.5849197 391.3886751 10.40028709 391.34304649 C14.0029837 391.31927942 17.60554191 391.30044332 21.2083149 391.29413414 C53.65435989 391.2299126 80.51843428 385.41021429 104.80493164 362.41674805 C116.14523686 350.34842323 124.31774314 335.65103127 129.05493164 319.79174805 C129.35270508 318.86749023 129.65047852 317.94323242 129.95727539 316.9909668 C136.36078785 293.29501975 133.05407707 266.46223042 122.05493164 244.79174805 C121.5302832 243.73213867 121.00563477 242.6725293 120.46508789 241.58081055 C115.91704042 233.10743115 109.75321334 226.55948198 103.05493164 219.79174805 C102.17514648 218.8982666 101.29536133 218.00478516 100.38891602 217.08422852 C97.3691604 214.0201902 94.33928118 210.96632954 91.30493164 207.91674805 C90.80960938 207.41847504 90.31428711 206.92020203 89.80395508 206.40682983 C84.65439148 201.23649843 79.46702483 196.16052037 73.9230957 191.41040039 C70.62545345 188.55319075 67.47503809 185.53879658 64.30493164 182.54174805 C57.60538522 176.23464368 50.85069233 169.99496285 44.05493164 163.79174805 C43.03635446 162.85723139 42.01813112 161.92232893 41.00024414 160.98706055 C36.4788292 156.83339215 31.95002991 152.69059202 27.36743164 148.60424805 C21.82081627 143.63578151 16.4252525 138.50747776 11.03076172 133.375 C8.10272149 130.60069453 5.22332121 127.92344573 2.04321289 125.4362793 C1.38708008 124.89358398 0.73094727 124.35088867 0.05493164 123.79174805 C0.05493164 123.13174805 0.05493164 122.47174805 0.05493164 121.79174805 C-0.60506836 121.79174805 -1.26506836 121.79174805 -1.94506836 121.79174805 C-1.94506836 122.45174805 -1.94506836 123.11174805 -1.94506836 123.79174805 C-3.56225146 125.22461984 -5.24130208 126.58799554 -6.94506836 127.91674805 C-11.26681563 131.36971897 -15.21412599 134.9440467 -19.06616211 138.9050293 C-21.50049467 141.34948383 -24.08662105 143.58001079 -26.69897461 145.83081055 C-29.3814584 148.17273553 -32.01029511 150.57048461 -34.63256836 152.97924805 C-35.39609619 153.67993408 -35.39609619 153.67993408 -36.17504883 154.39477539 C-38.83007523 156.83522086 -41.47640891 159.28456174 -44.11303711 161.74487305 C-49.54244372 166.80218631 -55.02555928 171.7542701 -60.69506836 176.54174805 C-66.97219233 181.84673532 -72.96359093 187.42445823 -78.90893555 193.09741211 C-82.88174655 196.88277223 -86.92355425 200.55564955 -91.06958008 204.15039062 C-93.79290119 206.53373973 -96.42917675 209.0054637 -99.07006836 211.47924805 C-103.53868372 215.63891563 -108.09376291 219.66518736 -112.75756836 223.60424805 C-118.90721418 228.80041987 -124.78917487 234.25019625 -130.61621094 239.8046875 C-131.25324951 240.41014404 -131.89028809 241.01560059 -132.54663086 241.6394043 C-133.10688965 242.17573486 -133.66714844 242.71206543 -134.24438477 243.26464844 C-139.28607555 247.79174805 -139.28607555 247.79174805 -141.94506836 247.79174805 C-141.78352801 248.51230501 -141.62198767 249.23286198 -141.45555216 249.975254 C-140.96725646 252.66932957 -140.80358407 255.12207237 -140.77732754 257.85565281 C-140.76546931 258.8579422 -140.75361108 259.86023158 -140.74139351 260.89289337 C-140.73339243 261.98684589 -140.72539136 263.08079841 -140.71714783 264.207901 C-140.70500435 265.37568586 -140.69286087 266.54347072 -140.68034941 267.74664301 C-140.64800405 270.9844107 -140.62013214 274.22217925 -140.59445798 277.46000564 C-140.57171346 280.23814819 -140.54545505 283.01625376 -140.51935583 285.79436649 C-140.27336132 312.14265979 -140.14072409 338.49193773 -140.03394222 364.84111881 C-140.0197955 368.27054518 -140.00537908 371.6999703 -139.99072266 375.12939453 C-139.98709119 375.98172574 -139.98345973 376.83405694 -139.97971822 377.71221637 C-139.91920235 391.51365084 -139.79924231 405.31394235 -139.65648811 419.11474413 C-139.51103843 433.29431254 -139.42650787 447.47328635 -139.39898211 461.65357965 C-139.38017339 470.39429732 -139.31479086 479.13206534 -139.1890514 487.87190943 C-139.10741564 493.86764649 -139.08539949 499.86179156 -139.10953312 505.85802758 C-139.12173128 509.3146742 -139.10848781 512.76607314 -139.02432251 516.22183037 C-138.60619879 536.43065509 -138.60619879 536.43065509 -142.52476811 542.06186938 C-146.22513672 545.83087375 -150.38740948 548.45412943 -155.0808574 550.82397354 C-157.51938884 552.08989709 -159.64544006 553.66891842 -161.81225586 555.3503418 C-163.1471047 556.31149095 -164.48302099 557.27115961 -165.82006836 558.22924805 C-167.33960505 559.32299049 -168.85913613 560.41674072 -170.37866211 561.51049805 C-171.90078278 562.60426857 -173.42291813 563.69801866 -174.94506836 564.79174805 C-184.94773212 571.98721965 -194.91493898 579.22606744 -204.82397461 586.55004883 C-211.05990298 591.15391782 -217.33682772 595.69856692 -223.63256836 600.22021484 C-229.08399751 604.14361035 -234.44532508 608.17041887 -239.75756836 612.2800293 C-241.94506836 613.79174805 -241.94506836 613.79174805 -243.94506836 613.79174805 C-244.00180886 600.31055075 -244.05792348 586.82935095 -244.1134457 573.34814858 C-244.14152655 566.53076734 -244.16975915 559.71338679 -244.19832039 552.89600754 C-244.33046404 521.32512925 -244.45191036 489.75427421 -244.5394026 458.18323755 C-244.57352112 445.89341688 -244.60978148 433.60360219 -244.6462853 421.31378841 C-244.65541711 418.23618831 -244.66440512 415.15858783 -244.67327952 412.08098698 C-244.78135696 374.72571126 -244.98195076 337.37591029 -245.45845449 300.02313125 C-245.54937733 292.81269 -245.62638522 285.60222161 -245.69235229 278.39151001 C-245.70130748 277.41355174 -245.71026266 276.43559346 -245.71948922 275.42800009 C-245.76261439 270.65403132 -245.80373318 265.88005041 -245.84324837 261.10605049 C-245.92805546 251.21350177 -246.0628851 241.32406979 -246.26228672 231.43315804 C-246.3918934 224.80843294 -246.46509994 218.18467646 -246.49195713 211.55874145 C-246.50898574 207.83226242 -246.55111672 204.11103316 -246.6671772 200.3862114 C-247.30297211 179.30768703 -247.30297211 179.30768703 -243.40751266 173.49905396 C-239.7671582 169.70606696 -235.65760346 167.16741205 -230.9731884 164.84835815 C-227.75372063 163.17107963 -224.97593019 161.02545159 -222.07006836 158.85424805 C-220.92382889 158.03605578 -219.77561649 157.22061486 -218.62475586 156.40893555 C-214.4643979 153.45605736 -210.32935562 150.46847162 -206.19506836 147.47924805 C-205.43726074 146.93147705 -204.67945313 146.38370605 -203.89868164 145.81933594 C-202.35221911 144.70135812 -200.80583282 143.58327482 -199.25952148 142.46508789 C-196.23598749 140.27908557 -193.21133285 138.09463743 -190.18652344 135.91040039 C-188.68884455 134.82886123 -187.19128647 133.74715474 -185.69384766 132.6652832 C-181.95799663 129.96633632 -178.22067603 127.26947263 -174.48022461 124.5769043 C-165.86995361 118.37498891 -157.30303134 112.118669 -148.76953125 105.81152344 C-143.64250878 102.02735541 -138.48002442 98.29965606 -133.28295898 94.61254883 C-128.37905082 91.12366364 -123.53487066 87.55636614 -118.69506836 83.97924805 C-110.23860053 77.73021372 -101.73034256 71.55666558 -93.1965332 65.41381836 C-90.8987184 63.75835517 -88.6031796 62.09978348 -86.30834961 60.44018555 C-79.53274686 55.54022175 -72.75383742 50.64555337 -65.94506836 45.79174805 C-54.35789522 37.52767603 -42.82330991 29.19504639 -31.38256836 20.72924805 C-2.93252868 -0.31397602 -2.93252868 -0.31397602 0 0 Z " fill="#00554D" transform="translate(518.945068359375,105.208251953125)"/>
<path d="M0 0 C0.11682464 15.82040186 0.20498366 31.64068719 0.25906086 47.46141338 C0.2848378 54.80734874 0.31997805 62.15301601 0.37719727 69.4987793 C0.42704849 75.90170036 0.45929474 82.30442726 0.47044247 88.707537 C0.47695854 92.09775154 0.49226092 95.48741068 0.52865028 98.87744713 C0.56485966 102.66302016 0.56994841 106.44743642 0.56762695 110.2331543 C0.59459152 111.91737488 0.59459152 111.91737488 0.62210083 113.63562012 C0.57137399 121.26237245 0.57137399 121.26237245 -2.421875 125.12657166 C-3.27265625 125.74480301 -4.1234375 126.36303436 -5 127 C-5.89972534 127.86214111 -5.89972534 127.86214111 -6.81762695 128.74169922 C-8.64802168 130.45413339 -10.47864542 132.16626982 -12.3125 133.875 C-12.9825708 134.49995361 -13.6526416 135.12490723 -14.34301758 135.76879883 C-18.17283427 139.33047715 -22.03850007 142.83491385 -26 146.25 C-28.59834437 148.52355132 -31.14420129 150.85285509 -33.6875 153.1875 C-34.19708252 153.65510742 -34.70666504 154.12271484 -35.23168945 154.60449219 C-37.88607401 157.04452704 -40.53188904 159.49332551 -43.16796875 161.953125 C-48.59737536 167.01043827 -54.08049092 171.96252206 -59.75 176.75 C-66.02712397 182.05498728 -72.01852257 187.63271018 -77.96386719 193.30566406 C-81.93667819 197.09102418 -85.97848589 200.7639015 -90.12451172 204.35864258 C-92.84783283 206.74199168 -95.48410839 209.21371566 -98.125 211.6875 C-102.59361536 215.84716759 -107.14869455 219.87343931 -111.8125 223.8125 C-117.96214582 229.00867182 -123.84410651 234.4584482 -129.67114258 240.01293945 C-130.30818115 240.618396 -130.94521973 241.22385254 -131.6015625 241.84765625 C-132.16182129 242.38398682 -132.72208008 242.92031738 -133.29931641 243.47290039 C-138.34100719 248 -138.34100719 248 -141 248 C-140.83845965 248.72055696 -140.67691931 249.44111393 -140.5104838 250.18350595 C-140.0221881 252.87758153 -139.85851571 255.33032432 -139.83225918 258.06390476 C-139.82040095 259.06619415 -139.80854272 260.06848354 -139.79632515 261.10114533 C-139.78832407 262.19509784 -139.780323 263.28905036 -139.77207947 264.41615295 C-139.75993599 265.58393782 -139.74779251 266.75172268 -139.73528105 267.95489496 C-139.70293569 271.19266265 -139.67506378 274.4304312 -139.64938962 277.66825759 C-139.6266451 280.44640014 -139.60038669 283.22450572 -139.57428747 286.00261844 C-139.32829296 312.35091175 -139.19565573 338.70018969 -139.08887386 365.04937077 C-139.07472714 368.47879714 -139.06031072 371.90822225 -139.0456543 375.33764648 C-139.04202283 376.18997769 -139.03839137 377.0423089 -139.03464986 377.92046832 C-138.97413399 391.72190279 -138.85417395 405.52219431 -138.71141975 419.32299609 C-138.56597007 433.50256449 -138.48143951 447.68153831 -138.45391375 461.86183161 C-138.43510503 470.60254927 -138.3697225 479.34031729 -138.24398304 488.08016139 C-138.16234728 494.07589844 -138.14033113 500.07004352 -138.16446476 506.06627954 C-138.17666292 509.52292615 -138.16341946 512.9743251 -138.07925415 516.43008232 C-137.66113043 536.63890705 -137.66113043 536.63890705 -141.57969975 542.27012134 C-145.28006836 546.0391257 -149.44234112 548.66238138 -154.13578904 551.03222549 C-156.57432048 552.29814905 -158.7003717 553.87717037 -160.8671875 555.55859375 C-162.20203634 556.51974291 -163.53795263 557.47941156 -164.875 558.4375 C-166.39453669 559.53124244 -167.91406778 560.62499267 -169.43359375 561.71875 C-170.95571442 562.81252052 -172.47784977 563.90627062 -174 565 C-184.00266376 572.1954716 -193.96987062 579.4343194 -203.87890625 586.75830078 C-210.11483462 591.36216977 -216.39175936 595.90681887 -222.6875 600.4284668 C-228.13892915 604.35186231 -233.50025672 608.37867083 -238.8125 612.48828125 C-241 614 -241 614 -243 614 C-243.0567405 600.5188027 -243.11285512 587.03760291 -243.16837734 573.55640054 C-243.19645819 566.73901929 -243.22469079 559.92163874 -243.25325203 553.10425949 C-243.38539568 521.53338121 -243.506842 489.96252617 -243.59433424 458.39148951 C-243.62845276 446.10166884 -243.66471312 433.81185415 -243.70121694 421.52204037 C-243.71034875 418.44444026 -243.71933677 415.36683979 -243.72821116 412.28923893 C-243.8362886 374.93396321 -244.0368824 337.58416225 -244.51338613 300.2313832 C-244.60430897 293.02094196 -244.68131687 285.81047357 -244.74728394 278.59976196 C-244.75623912 277.62180369 -244.7651943 276.64384542 -244.77442086 275.63625205 C-244.81754603 270.86228327 -244.85866482 266.08830236 -244.89818001 261.31430244 C-244.9829871 251.42175372 -245.11781674 241.53232175 -245.31721836 231.64140999 C-245.44682504 225.0166849 -245.52003158 218.39292841 -245.54688877 211.7669934 C-245.56391738 208.04051437 -245.60604837 204.31928512 -245.72210884 200.59446335 C-246.35790375 179.51593898 -246.35790375 179.51593898 -242.46244431 173.70730591 C-238.82208984 169.91431891 -234.7125351 167.375664 -230.02812004 165.05661011 C-226.80865227 163.37933158 -224.03086183 161.23370354 -221.125 159.0625 C-219.97876054 158.24430773 -218.83054813 157.42886681 -217.6796875 156.6171875 C-213.51932954 153.66430932 -209.38428726 150.67672357 -205.25 147.6875 C-204.49219238 147.139729 -203.73438477 146.59195801 -202.95361328 146.02758789 C-201.40715075 144.90961007 -199.86076446 143.79152678 -198.31445312 142.67333984 C-195.29091913 140.48733752 -192.26626449 138.30288938 -189.24145508 136.11865234 C-187.74377619 135.03711318 -186.24621811 133.95540669 -184.7487793 132.87353516 C-181.01292827 130.17458827 -177.27560767 127.47772458 -173.53515625 124.78515625 C-164.92488525 118.58324087 -156.35796298 112.32692095 -147.82446289 106.01977539 C-142.69744042 102.23560736 -137.53495606 98.50790801 -132.33789062 94.82080078 C-127.43398246 91.3319156 -122.5898023 87.7646181 -117.75 84.1875 C-109.29353217 77.93846567 -100.78527421 71.76491753 -92.25146484 65.62207031 C-89.95365004 63.96660712 -87.65811124 62.30803543 -85.36328125 60.6484375 C-78.5876785 55.7484737 -71.80876906 50.85380532 -65 46 C-53.41282686 37.73592799 -41.87824155 29.40329834 -30.4375 20.9375 C-2.13039725 0 -2.13039725 0 0 0 Z " fill="#43D7B6" transform="translate(518,105)"/>
<path d="M0 0 C0.11682464 15.82040186 0.20498366 31.64068719 0.25906086 47.46141338 C0.2848378 54.80734874 0.31997805 62.15301601 0.37719727 69.4987793 C0.42704849 75.90170036 0.45929474 82.30442726 0.47044247 88.707537 C0.47695854 92.09775154 0.49226092 95.48741068 0.52865028 98.87744713 C0.56485966 102.66302016 0.56994841 106.44743642 0.56762695 110.2331543 C0.59459152 111.91737488 0.59459152 111.91737488 0.62210083 113.63562012 C0.57137399 121.26237245 0.57137399 121.26237245 -2.421875 125.12657166 C-3.27265625 125.74480301 -4.1234375 126.36303436 -5 127 C-5.89972534 127.86214111 -5.89972534 127.86214111 -6.81762695 128.74169922 C-8.64802168 130.45413339 -10.47864542 132.16626982 -12.3125 133.875 C-12.9825708 134.49995361 -13.6526416 135.12490723 -14.34301758 135.76879883 C-18.17283427 139.33047715 -22.03850007 142.83491385 -26 146.25 C-28.59834437 148.52355132 -31.14420129 150.85285509 -33.6875 153.1875 C-34.19708252 153.65510742 -34.70666504 154.12271484 -35.23168945 154.60449219 C-37.88607401 157.04452704 -40.53188904 159.49332551 -43.16796875 161.953125 C-48.59737536 167.01043827 -54.08049092 171.96252206 -59.75 176.75 C-66.02712397 182.05498728 -72.01852257 187.63271018 -77.96386719 193.30566406 C-81.93667819 197.09102418 -85.97848589 200.7639015 -90.12451172 204.35864258 C-92.84783283 206.74199168 -95.48410839 209.21371566 -98.125 211.6875 C-102.59361536 215.84716759 -107.14869455 219.87343931 -111.8125 223.8125 C-117.96214582 229.00867182 -123.84410651 234.4584482 -129.67114258 240.01293945 C-130.30818115 240.618396 -130.94521973 241.22385254 -131.6015625 241.84765625 C-132.16182129 242.38398682 -132.72208008 242.92031738 -133.29931641 243.47290039 C-135.13954512 245.12530215 -136.9272763 246.6459724 -139 248 C-144.87828534 247.08044367 -149.53065354 243.08646897 -154.25 239.6875 C-155.12970459 239.06302979 -156.00940918 238.43855957 -156.91577148 237.79516602 C-163.40050407 233.18166717 -169.84085823 228.50605121 -176.27832031 223.8269043 C-182.40409223 219.38981873 -188.63649424 215.12201629 -194.89477539 210.87475586 C-201.08267838 206.66191756 -207.15322911 202.30435953 -213.2019043 197.89477539 C-219.61851442 193.23412644 -226.14699477 188.74828698 -232.72070312 184.3125 C-236.61059975 181.67902993 -240.38472857 179.00911814 -244 176 C-235.30367734 169.42693534 -226.56978326 162.92584627 -217.6796875 156.6171875 C-213.51932954 153.66430932 -209.38428726 150.67672357 -205.25 147.6875 C-204.49219238 147.139729 -203.73438477 146.59195801 -202.95361328 146.02758789 C-201.40715075 144.90961007 -199.86076446 143.79152678 -198.31445312 142.67333984 C-195.29091913 140.48733752 -192.26626449 138.30288938 -189.24145508 136.11865234 C-187.74377619 135.03711318 -186.24621811 133.95540669 -184.7487793 132.87353516 C-181.01292827 130.17458827 -177.27560767 127.47772458 -173.53515625 124.78515625 C-164.92488525 118.58324087 -156.35796298 112.32692095 -147.82446289 106.01977539 C-142.69744042 102.23560736 -137.53495606 98.50790801 -132.33789062 94.82080078 C-127.43398246 91.3319156 -122.5898023 87.7646181 -117.75 84.1875 C-109.29353217 77.93846567 -100.78527421 71.76491753 -92.25146484 65.62207031 C-89.95365004 63.96660712 -87.65811124 62.30803543 -85.36328125 60.6484375 C-78.5876785 55.7484737 -71.80876906 50.85380532 -65 46 C-53.41282686 37.73592799 -41.87824155 29.40329834 -30.4375 20.9375 C-2.13039725 0 -2.13039725 0 0 0 Z " fill="#0AA88C" transform="translate(518,105)"/>
<path d="M0 0 C43.48648649 0 43.48648649 0 52 7 C59.14569818 15.28632606 59.62441553 22.3168179 59 33 C57.71250053 39.05226127 53.90655811 44.11150077 48.76953125 47.44921875 C37.74747526 53.41309091 26.20731791 52.09042458 14 52 C14 61.24 14 70.48 14 80 C9.38 80 4.76 80 0 80 C0 53.6 0 27.2 0 0 Z " fill="#01534B" transform="translate(327,740)"/>
<path d="M0 0 C17.16 0 34.32 0 52 0 C52 4.29 52 8.58 52 13 C39.13 13 26.26 13 13 13 C13 19.6 13 26.2 13 33 C24.55 33 36.1 33 48 33 C48 36.96 48 40.92 48 45 C36.45 45 24.9 45 13 45 C13 52.26 13 59.52 13 67 C26.2 67 39.4 67 53 67 C53 71.29 53 75.58 53 80 C35.51 80 18.02 80 0 80 C0 53.6 0 27.2 0 0 Z " fill="#004F48" transform="translate(651,740)"/>
<path d="M0 0 C4.62 0 9.24 0 14 0 C14.01401855 2.39088867 14.01401855 2.39088867 14.02832031 4.83007812 C14.06830147 10.76427788 14.13408427 16.69796366 14.20751953 22.63183594 C14.23568181 25.19622171 14.25691981 27.76069353 14.27099609 30.32519531 C14.29249026 34.01932677 14.33917745 37.71242887 14.390625 41.40625 C14.39185364 42.5461438 14.39308228 43.6860376 14.39434814 44.86047363 C14.51880536 51.68032233 15.31056081 56.20927967 19 62 C23.98107782 66.11480342 28.88653053 68.33130746 35.375 67.875 C41.6597891 66.95294831 46.39634731 64.97372639 50.4375 60 C52.64141716 55.76847905 53.12620496 52.42770261 53.20532227 47.68066406 C53.22526749 46.61986633 53.24521271 45.5590686 53.26576233 44.46612549 C53.28247482 43.32746033 53.29918732 42.18879517 53.31640625 41.015625 C53.33718735 39.84489441 53.35796844 38.67416382 53.37937927 37.46795654 C53.44475628 33.72869731 53.50370491 29.98936795 53.5625 26.25 C53.60569647 23.7148365 53.64931112 21.17968009 53.69335938 18.64453125 C53.80042563 12.42975935 53.90172671 6.21491691 54 0 C58.62 0 63.24 0 68 0 C68.07466132 7.04343398 68.12884281 14.08663295 68.16479492 21.13037109 C68.17979713 23.52201353 68.20020547 25.91362885 68.22631836 28.30517578 C68.26308043 31.76081064 68.27981264 35.21607892 68.29296875 38.671875 C68.30845261 39.72550232 68.32393646 40.77912964 68.33988953 41.86468506 C68.34262434 54.17717035 66.05958041 63.87550391 57.30078125 72.71484375 C49.39411345 79.98187101 40.76821409 81.33693734 30.28125 81.20703125 C20.57876252 80.59485049 13.92797614 75.98165779 7.20703125 69.1875 C-0.01958888 60.62261689 -0.45074907 49.40832568 -0.29296875 38.671875 C-0.28872391 37.55685608 -0.28447906 36.44183716 -0.28010559 35.29302979 C-0.26349235 31.77842674 -0.22587342 28.26442579 -0.1875 24.75 C-0.17243072 22.34766461 -0.15874627 19.94532011 -0.14648438 17.54296875 C-0.11364586 11.69508525 -0.06198579 5.84764422 0 0 Z " fill="#03544D" transform="translate(409,740)"/>
<path d="M0 0 C0.79390137 0.00870117 1.58780273 0.01740234 2.40576172 0.02636719 C11.75556928 0.25968208 19.01024486 2.98351113 27.1875 7.375 C25.2075 11.005 23.2275 14.635 21.1875 18.375 C20.32769531 18.0140625 19.46789062 17.653125 18.58203125 17.28125 C9.96865847 13.89977323 1.32697423 11.12738774 -7.921875 14.0390625 C-11.04694302 15.75040927 -11.85210418 17.48964369 -13 20.8125 C-13.16093196 24.46857592 -13.16093196 24.46857592 -10.703125 26.94140625 C-7.60152384 29.55261911 -5.21352733 30.63247092 -1.375 31.875 C0.46578125 32.49568359 0.46578125 32.49568359 2.34375 33.12890625 C4.88296249 33.95699464 7.42591604 34.77287953 9.96875 35.58984375 C18.26884695 38.36541036 23.82926974 40.93346966 29.125 47.9375 C31.18684153 54.60816376 31.52276809 62.32999294 28.625 68.8125 C24.72785834 75.33986801 18.32667108 79.85050709 11.09375 81.99609375 C-2.18506212 85.29305909 -13.37205725 81.89883993 -25.4140625 75.97265625 C-27.8125 74.375 -27.8125 74.375 -29.8125 70.375 C-27.8325 67.735 -25.8525 65.095 -23.8125 62.375 C-20.26243755 63.44001873 -17.02678096 64.72760481 -13.75 66.4375 C-7.67043734 69.51735377 -1.58550832 70.14466004 5.1875 69.375 C10.61333894 67.52052047 10.61333894 67.52052047 14.1875 63.375 C14.49878861 61.30279161 14.49878861 61.30279161 14.5625 59 C14.61148438 58.22914063 14.66046875 57.45828125 14.7109375 56.6640625 C13.93226141 53.25880737 12.00041413 52.35086406 9.1875 50.375 C6.33710127 49.12008327 6.33710127 49.12008327 3.2578125 48.19140625 C2.13246094 47.82080078 1.00710938 47.45019531 -0.15234375 47.06835938 C-2.50089409 46.31708277 -4.84985026 45.56707358 -7.19921875 44.81835938 C-14.52572034 42.40270714 -20.97300191 40.25564739 -25.6875 33.8125 C-28.32122992 28.10608518 -28.7721506 22.09135391 -27.19921875 16 C-24.36217743 8.60119622 -19.46922918 5.24340177 -12.6015625 1.734375 C-8.41526374 0.00037864 -4.4837231 -0.08171227 0 0 Z " fill="#03524A" transform="translate(597.8125,738.625)"/>
<path d="M0 0 C4.29 0 8.58 0 13 0 C13 22.44 13 44.88 13 68 C24.55 68 36.1 68 48 68 C48 71.96 48 75.92 48 80 C32.16 80 16.32 80 0 80 C0 53.6 0 27.2 0 0 Z " fill="#004E47" transform="translate(502,740)"/>
<path d="M0 0 C23.06662902 -0.51259176 23.06662902 -0.51259176 28.6796875 4.5 C31.52600701 7.73368844 31.28470669 11.80416776 31.21484375 15.97265625 C30.87438526 19.18534637 29.79331756 21.34094293 28 24 C22.1934348 28.67751085 14.66758094 28.14633357 7.5625 28.0625 C5.066875 28.041875 2.57125 28.02125 0 28 C0 18.76 0 9.52 0 0 Z " fill="#FCFEFD" transform="translate(341,752)"/>
<path d="M0 0 C3.5017277 1.62389281 5.4029818 3.99592394 7.375 7.3125 C8.95965544 14.12651841 8.20905018 18.93846076 5 25 C2.80900041 27.88813582 0.45930833 28.97793163 -3 30 C-7.94312237 30.54923582 -11.35900817 29.9795554 -15.48828125 27.31640625 C-18.92630652 24.32257029 -19.76578468 20.8473733 -20.3125 16.53515625 C-20.5865457 10.84014411 -19.88434054 7.42383228 -16 3 C-11.31791479 -1.30050558 -6.03329754 -0.86305192 0 0 Z " fill="#0B4840" transform="translate(367,856)"/>
<path d="M0 0 C1.65 0 3.3 0 5 0 C7.64 4.62 10.28 9.24 13 14 C13.928125 12.618125 14.85625 11.23625 15.8125 9.8125 C16.64007813 8.58660156 16.64007813 8.58660156 17.484375 7.3359375 C19.10097289 4.93270061 19.10097289 4.93270061 20.5625 1.9375 C21.036875 1.298125 21.51125 0.65875 22 0 C24.58984375 -0.12109375 24.58984375 -0.12109375 27 0 C27.33977725 3.33270874 27.67063063 6.66624786 28 10 C28.09539062 10.93457031 28.19078125 11.86914062 28.2890625 12.83203125 C28.81980465 18.25318323 29.1027694 23.55322171 29 29 C27.02 29 25.04 29 23 29 C22.34 23.39 21.68 17.78 21 12 C19.02 15.63 17.04 19.26 15 23 C11 22 11 22 9.296875 19.49609375 C7.1484375 15.24804688 7.1484375 15.24804688 5 11 C4.34 16.94 3.68 22.88 3 29 C1.02 29 -0.96 29 -3 29 C-2.52279768 19.21735243 -1.70426788 9.66303343 0 0 Z " fill="#054B43" transform="translate(426,856)"/>
<path d="M0 0 C2.23046875 0.02734375 2.23046875 0.02734375 5 1 C6.81762759 3.32757099 8.03740167 5.90826307 9.3125 8.5625 C9.67150391 9.27341797 10.03050781 9.98433594 10.40039062 10.71679688 C11.28284613 12.46994182 12.14356361 14.23399841 13 16 C15.84331266 13.49720383 17.37336847 10.71102186 19.125 7.375 C21.91666667 2.08333333 21.91666667 2.08333333 23 1 C24.65 1 26.3 1 28 1 C28.66 10.57 29.32 20.14 30 30 C28.02 30 26.04 30 24 30 C23.34 24.39 22.68 18.78 22 13 C19.03 18.445 19.03 18.445 16 24 C11 23 11 23 9.41796875 21.0390625 C9.01191406 20.24242187 8.60585938 19.44578125 8.1875 18.625 C7.76855469 17.83351563 7.34960938 17.04203125 6.91796875 16.2265625 C6 14 6 14 6 11 C5.34 11 4.68 11 4 11 C4 17.27 4 23.54 4 30 C2.02 30 0.04 30 -2 30 C-2.1346906 23.05033907 -1.75715004 16.28143617 -1 9.375 C-0.90460938 8.46621094 -0.80921875 7.55742188 -0.7109375 6.62109375 C-0.47856232 4.41352957 -0.24153511 2.20657739 0 0 Z " fill="#064A42" transform="translate(385,855)"/>
<path d="M0 0 C3.8053125 -0.12375 3.8053125 -0.12375 7.6875 -0.25 C8.87218872 -0.30462402 8.87218872 -0.30462402 10.08081055 -0.36035156 C13.90260839 -0.42027101 15.63709783 -0.23202728 18.95703125 1.890625 C22.07544823 5.11040544 22.3920577 7.46706576 22.359375 11.9609375 C21.7567698 15.38006698 19.63213933 16.93189052 17 19 C14.47524538 20.26237731 12.68799534 20.09856404 9.875 20.0625 C8.96492187 20.05347656 8.05484375 20.04445313 7.1171875 20.03515625 C6.06917969 20.01775391 6.06917969 20.01775391 5 20 C5 22.97 5 25.94 5 29 C3.35 29 1.7 29 0 29 C0 19.43 0 9.86 0 0 Z " fill="#04433A" transform="translate(683,856)"/>
<path d="M0 0 C3.8053125 -0.12375 3.8053125 -0.12375 7.6875 -0.25 C8.87218872 -0.30462402 8.87218872 -0.30462402 10.08081055 -0.36035156 C13.90260839 -0.42027101 15.63709783 -0.23202728 18.95703125 1.890625 C21.60899593 4.6287912 21.95937334 5.46169678 22.25 9.3125 C21.98368917 13.24058469 21.43481646 14.95647943 19 18 C15.84984761 19.99647816 13.44155341 20.22214614 9.75 20.125 C8.85796875 20.10695313 7.9659375 20.08890625 7.046875 20.0703125 C6.37140625 20.04710937 5.6959375 20.02390625 5 20 C5 22.97 5 25.94 5 29 C3.35 29 1.7 29 0 29 C0 19.43 0 9.86 0 0 Z " fill="#044A42" transform="translate(653,856)"/>
<path d="M0 0 C5 0 5 0 6.74511719 1.52880859 C7.25719727 2.22828613 7.76927734 2.92776367 8.296875 3.6484375 C9.14572266 4.78539062 9.14572266 4.78539062 10.01171875 5.9453125 C10.58535156 6.74710938 11.15898437 7.54890625 11.75 8.375 C12.33910156 9.1690625 12.92820312 9.963125 13.53515625 10.78125 C17.74679129 16.49358259 17.74679129 16.49358259 19 19 C19.33 12.73 19.66 6.46 20 0 C21.65 0 23.3 0 25 0 C25 9.57 25 19.14 25 29 C20 29 20 29 18.25488281 27.45532227 C17.74280273 26.74947998 17.23072266 26.0436377 16.703125 25.31640625 C16.13722656 24.55392578 15.57132813 23.79144531 14.98828125 23.00585938 C14.12783203 21.79639648 14.12783203 21.79639648 13.25 20.5625 C12.08856205 18.98045378 10.92710475 17.39842177 9.765625 15.81640625 C9.25805664 15.10943604 8.75048828 14.40246582 8.22753906 13.67407227 C7.10527009 12.05456978 7.10527009 12.05456978 6 11 C6 16.94 6 22.88 6 29 C4.02 29 2.04 29 0 29 C0 19.43 0 9.86 0 0 Z " fill="#0C4F47" transform="translate(498,856)"/>
<path d="M0 0 C1.98 0 3.96 0 6 0 C9.07018221 6.41206197 11.80816383 12.91227957 14.3125 19.5625 C14.57885254 20.26503906 14.84520508 20.96757813 15.11962891 21.69140625 C17 26.74853035 17 26.74853035 17 29 C15.02 29 13.04 29 11 29 C10.67 27.02 10.34 25.04 10 23 C5.38 23 0.76 23 -4 23 C-4.33 24.98 -4.66 26.96 -5 29 C-6.98 29 -8.96 29 -11 29 C-7.62005381 19.19699457 -4.1420489 9.51205035 0 0 Z " fill="#023C33" transform="translate(629,856)"/>
<path d="M0 0 C1.65 0 3.3 0 5 0 C5.02505615 0.55461914 5.0501123 1.10923828 5.07592773 1.68066406 C5.19227927 4.20398843 5.31482754 6.72697536 5.4375 9.25 C5.47681641 10.12269531 5.51613281 10.99539063 5.55664062 11.89453125 C5.59853516 12.73886719 5.64042969 13.58320312 5.68359375 14.453125 C5.72025146 15.22817383 5.75690918 16.00322266 5.79467773 16.80175781 C5.99878386 18.98697965 6.2924284 20.92095541 7 23 C10.04300316 24.52150158 12.654085 24.23899393 16 24 C18.12280563 20.81579155 18.28019537 19.79462745 18.4140625 16.11328125 C18.45273437 15.17548828 18.49140625 14.23769531 18.53125 13.27148438 C18.57765625 11.80678711 18.57765625 11.80678711 18.625 10.3125 C18.66367187 9.32443359 18.70234375 8.33636719 18.7421875 7.31835938 C18.83645867 4.87909293 18.92206218 2.43983405 19 0 C20.65 0 22.3 0 24 0 C24.1164862 3.72890255 24.18734576 7.45733514 24.25 11.1875 C24.30027344 12.77014648 24.30027344 12.77014648 24.3515625 14.38476562 C24.45071882 22.24290413 24.45071882 22.24290413 22.109375 26.17578125 C17.99393371 29.73487584 14.21394034 29.38471914 8.9296875 29.359375 C6 29 6 29 2.8125 26.625 C0.32247591 23.01875822 -0.12255759 21.325021 -0.09765625 16.9921875 C-0.09443359 16.00605469 -0.09121094 15.01992188 -0.08789062 14.00390625 C-0.07951172 12.97136719 -0.07113281 11.93882812 -0.0625 10.875 C-0.05798828 9.83472656 -0.05347656 8.79445313 -0.04882812 7.72265625 C-0.03701952 5.14838038 -0.02055075 2.57421854 0 0 Z " fill="#024841" transform="translate(464,856)"/>
<path d="M0 0 C2.875 1.8125 2.875 1.8125 5 5 C5.88502228 10.13312923 5.72646116 14.45627004 3.5 19.1875 C0.47003294 21.38422612 -1.40945434 21.74051449 -5.09765625 21.47265625 C-7 21 -7 21 -9.4375 19.0625 C-11.48847736 15.04258438 -12.35759974 11.52165001 -12 7 C-8.95190843 1.11403008 -6.65971067 -0.78349537 0 0 Z " fill="#F8FCFB" transform="translate(364,860)"/>
<path d="M0 0 C0.845625 0.495 1.69125 0.99 2.5625 1.5 C2.2325 2.82 1.9025 4.14 1.5625 5.5 C0.881875 5.335 0.20125 5.17 -0.5 5 C-5.01927712 4.23076134 -9.06712405 4.04320802 -13.4375 5.5 C-15.47249969 10.12499931 -15.05321387 15.79773225 -13.375 20.4375 C-11.49846462 22.78975322 -11.49846462 22.78975322 -8.125 23.4375 C-4.37604272 23.50104165 -1.87771566 22.92643088 1.5625 21.5 C1.8925 23.15 2.2225 24.8 2.5625 26.5 C-0.95789707 28.84693138 -2.63807009 28.82723764 -6.8125 28.875 C-8.49472656 28.91753906 -8.49472656 28.91753906 -10.2109375 28.9609375 C-14.11932301 28.40259671 -15.67822183 27.27877837 -18.4375 24.5 C-20.77387344 21.16131529 -20.73609455 18.0719034 -20.75 14.0625 C-20.76675781 12.95003906 -20.78351563 11.83757813 -20.80078125 10.69140625 C-20.2995172 6.28782854 -18.75075611 3.6490991 -15.4375 0.75 C-10.38618308 -2.40707308 -5.36611819 -2.34157885 0 0 Z " fill="#054E46" transform="translate(337.4375,856.5)"/>
<path d="M0 0 C0.66 0 1.32 0 2 0 C2 25.74 2 51.48 2 78 C5.3 78 8.6 78 12 78 C11.99476318 77.21761963 11.98952637 76.43523926 11.98413086 75.62915039 C11.96342894 72.10694167 11.95036162 68.5847457 11.9375 65.0625 C11.92493164 63.21495117 11.92493164 63.21495117 11.91210938 61.33007812 C11.90888672 60.16025391 11.90566406 58.99042969 11.90234375 57.78515625 C11.89710693 56.70113525 11.89187012 55.61711426 11.88647461 54.50024414 C12 52 12 52 13 51 C21.2864731 49.84275117 29.65199932 49.87881934 38 50 C38 50.33 38 50.66 38 51 C32.82704239 52.06305116 27.87495694 52.1165001 22.625 52.0625 C19.77875 52.041875 16.9325 52.02125 14 52 C14 61.24 14 70.48 14 80 C9.38 80 4.76 80 0 80 C0 53.6 0 27.2 0 0 Z " fill="#035146" transform="translate(327,740)"/>
<path d="M0 0 C3.32759923 1.55194754 5.48580485 3.30621949 8 6 C5.525 5.01 5.525 5.01 3 4 C3 4.61052876 3 5.22105753 3 5.85008717 C3 45.90005811 3 85.95002906 3 126 C0.27486404 122.90041623 -0.37343302 120.99229719 -0.36076355 116.88739014 C-0.36488754 115.85536469 -0.36901154 114.82333923 -0.3732605 113.76004028 C-0.36247467 112.63363129 -0.35168884 111.50722229 -0.34057617 110.34667969 C-0.34101425 109.15615997 -0.34145233 107.96564026 -0.34190369 106.73904419 C-0.34017251 103.47889977 -0.32513338 100.2191423 -0.30418181 96.95907497 C-0.28542034 93.55047222 -0.283665 90.14186175 -0.28010559 86.73321533 C-0.27078354 80.28048605 -0.2461677 73.82790935 -0.21605712 67.37524724 C-0.18251801 60.02827834 -0.16602835 52.68130213 -0.15097082 45.33427572 C-0.11961821 30.22276548 -0.0668547 15.111398 0 0 Z " fill="#014C45" transform="translate(518,105)"/>
<path d="M0 0 C2.86360218 0.24665481 3.81730762 0.78588118 5.703125 2.99609375 C6.21359375 3.80175781 6.7240625 4.60742188 7.25 5.4375 C7.77078125 6.24058594 8.2915625 7.04367187 8.828125 7.87109375 C10 10 10 10 10 12 C10.66 12 11.32 12 12 12 C12.3403125 10.9790625 12.3403125 10.9790625 12.6875 9.9375 C14.33070548 6.25984964 16.13958412 2.87666824 19 0 C21.8125 -0.4375 21.8125 -0.4375 24 0 C22.63659091 3.83672911 20.83068789 6.72248172 18.4375 10 C14.38266999 16.16637012 13.91925471 21.74445868 14 29 C12.35 29 10.7 29 9 29 C9.020625 28.26136719 9.04125 27.52273438 9.0625 26.76171875 C8.90070287 18.80332225 6.93142913 14.5331027 1.8125 8.47265625 C-0.09296776 5.87317114 -0.73380348 4.18881244 -1 1 C-0.67 0.67 -0.34 0.34 0 0 Z " fill="#045952" transform="translate(577,856)"/>
<path d="M0 0 C8.25 0 16.5 0 25 0 C25 1.32 25 2.64 25 4 C21.7 4 18.4 4 15 4 C15 12.25 15 20.5 15 29 C13.35 29 11.7 29 10 29 C10 20.75 10 12.5 10 4 C6.7 4 3.4 4 0 4 C0 2.68 0 1.36 0 0 Z " fill="#00413A" transform="translate(547,856)"/>
<path d="M0 0 C4.29 0 8.58 0 13 0 C13 16.5 13 33 13 50 C12.67 50 12.34 50 12 50 C12 34.16 12 18.32 12 2 C8.7 2 5.4 2 2 2 C2 19.49 2 36.98 2 55 C0.08152523 51.16305047 -0.247146 49.92349249 -0.22705078 45.86425781 C-0.22689972 44.84350159 -0.22674866 43.82274536 -0.22659302 42.77105713 C-0.21627045 41.67613953 -0.20594788 40.58122192 -0.1953125 39.453125 C-0.1924826 38.3267865 -0.18965271 37.200448 -0.18673706 36.03997803 C-0.17554374 32.44321054 -0.15044037 28.84669221 -0.125 25.25 C-0.11496912 22.81120151 -0.10584346 20.37239912 -0.09765625 17.93359375 C-0.07560712 11.95563319 -0.04108277 5.97785884 0 0 Z " fill="#003D37" transform="translate(409,740)"/>
<path d="M0 0 C1.98 0 3.96 0 6 0 C6.86846831 1.74294678 7.71930627 3.49468663 8.5625 5.25 C9.27599609 6.71179688 9.27599609 6.71179688 10.00390625 8.203125 C11.03510273 11.09856297 11.11346788 12.19966161 10 15 C8.5393715 12.35261084 8 11.10551666 8 8 C7.34 8 6.68 8 6 8 C6.66 11.63 7.32 15.26 8 19 C4.7 19 1.4 19 -2 19 C-1.01 15.535 -1.01 15.535 0 12 C-0.66 12 -1.32 12 -2 12 C-3.6442351 7.06729471 -2.18615592 4.45975807 0 0 Z " fill="#06463E" transform="translate(629,856)"/>
<path d="M0 0 C3.8053125 -0.12375 3.8053125 -0.12375 7.6875 -0.25 C8.87218872 -0.30462402 8.87218872 -0.30462402 10.08081055 -0.36035156 C14.0041458 -0.42186295 15.63854887 -0.24127915 19.01953125 2.015625 C19.67308594 2.67046875 20.32664062 3.3253125 21 4 C20.67 4.99 20.34 5.98 20 7 C20 6.34 20 5.68 20 5 C18.02 5.99 18.02 5.99 16 7 C15.01 6.34 14.02 5.68 13 5 C10.9507906 4.54860541 10.9507906 4.54860541 8.8125 4.375 C7.554375 4.25125 6.29625 4.1275 5 4 C5 7.96 5 11.92 5 16 C4.67 16 4.34 16 4 16 C3.67 12.04 3.34 8.08 3 4 C2.67 11.92 2.34 19.84 2 28 C2.66 28 3.32 28 4 28 C4 25.36 4 22.72 4 20 C4.33 20 4.66 20 5 20 C5 22.97 5 25.94 5 29 C3.35 29 1.7 29 0 29 C0 19.43 0 9.86 0 0 Z " fill="#003A33" transform="translate(683,856)"/>
<path d="M0 0 C1.65 0 3.3 0 5 0 C5 9.57 5 19.14 5 29 C3.35 29 1.7 29 0 29 C0 19.43 0 9.86 0 0 Z " fill="#003F38" transform="translate(534,856)"/>
<path d="M0 0 C0.845625 0.495 1.69125 0.99 2.5625 1.5 C2.2325 2.82 1.9025 4.14 1.5625 5.5 C0.881875 5.335 0.20125 5.17 -0.5 5 C-5.01927712 4.23076134 -9.06712405 4.04320802 -13.4375 5.5 C-13.7675 6.16 -14.0975 6.82 -14.4375 7.5 C-14.7675 7.83 -15.0975 8.16 -15.4375 8.5 C-15.67037008 10.18183948 -15.85014166 11.8712416 -16 13.5625 C-16.12568359 14.94115234 -16.12568359 14.94115234 -16.25390625 16.34765625 C-16.31449219 17.05792969 -16.37507813 17.76820313 -16.4375 18.5 C-17.4275 18.17 -18.4175 17.84 -19.4375 17.5 C-20.8748082 8.58176238 -20.8748082 8.58176238 -19.25 4.5625 C-13.90472269 -1.52005694 -7.63597587 -3.3320622 0 0 Z " fill="#095048" transform="translate(337.4375,856.5)"/>
<path d="M0 0 C1.65 0 3.3 0 5 0 C5.33977725 3.33270874 5.67063063 6.66624786 6 10 C6.09539062 10.93457031 6.19078125 11.86914062 6.2890625 12.83203125 C6.81980465 18.25318323 7.1027694 23.55322171 7 29 C5.02 29 3.04 29 1 29 C1 22.4 1 15.8 1 9 C1.66 9 2.32 9 3 9 C3.33 6.36 3.66 3.72 4 1 C2.68 1.33 1.36 1.66 0 2 C0 1.34 0 0.68 0 0 Z " fill="#014940" transform="translate(448,856)"/>
<path d="M0 0 C7.23897912 -0.48259861 7.23897912 -0.48259861 10.5625 1.625 C12 4 12 4 12 7.125 C11 10 11 10 9.375 11.375 C6.2052173 12.20915334 3.26096908 12.12542189 0 12 C0 8.04 0 4.08 0 0 Z " fill="#DCECEA" transform="translate(688,860)"/>
<path d="M0 0 C4.11398914 4.45682156 5.33456407 7.8887588 5.30078125 13.9921875 C4.83603508 17.09451907 3.16447527 18.83552473 1 21 C-1.21517742 16.18710447 -1.35867944 11.87454756 -1.55859375 6.64453125 C-1.70425781 5.77183594 -1.84992188 4.89914062 -2 4 C-4.90092502 2.06604999 -5.89674737 1.69868059 -9.1875 1.375 C-10.445625 1.25125 -11.70375 1.1275 -13 1 C-13 0.34 -13 -0.32 -13 -1 C-4.10373945 -2.50784077 -4.10373945 -2.50784077 0 0 Z " fill="#08544D" transform="translate(370,858)"/>
<path d="M0 0 C2.93167219 0.31693753 4.58982661 0.63225834 6.8125 2.625 C8.47603223 5.95206447 8.38708602 8.32268277 8 12 C6.8125 14.875 6.8125 14.875 5 17 C2.3125 17.8125 2.3125 17.8125 0 18 C0 17.67 0 17.34 0 17 C-2.97 16.67 -5.94 16.34 -9 16 C-9 15.67 -9 15.34 -9 15 C-8.36191406 14.86722656 -7.72382812 14.73445312 -7.06640625 14.59765625 C-6.24011719 14.42105469 -5.41382813 14.24445312 -4.5625 14.0625 C-3.73878906 13.88847656 -2.91507813 13.71445312 -2.06640625 13.53515625 C-0.02338796 13.19247006 -0.02338796 13.19247006 1 12 C1.04092937 9.66702567 1.04241723 7.33294775 1 5 C-2.3 4.34 -5.6 3.68 -9 3 C-9 2.67 -9 2.34 -9 2 C-4.545 1.505 -4.545 1.505 0 1 C0 0.67 0 0.34 0 0 Z " fill="#074B44" transform="translate(667,857)"/>
<path d="M0 0 C0.66 0 1.32 0 2 0 C2.45375 0.928125 2.9075 1.85625 3.375 2.8125 C4.9421633 6.03921389 4.9421633 6.03921389 7 9 C7.74278494 10.67262156 8.44876111 12.36188443 9.125 14.0625 C9.47820313 14.94035156 9.83140625 15.81820312 10.1953125 16.72265625 C11 19 11 19 11 21 C9.02 21 7.04 21 5 21 C4.67 18.69 4.34 16.38 4 14 C-0.95 14 -5.9 14 -11 14 C-11.33 13.01 -11.66 12.02 -12 11 C-11.34 11 -10.68 11 -10 11 C-9.67 10.34 -9.34 9.68 -9 9 C-8.67 9.99 -8.34 10.98 -8 12 C-4.37 12 -0.74 12 3 12 C2.2575 9.8653125 2.2575 9.8653125 1.5 7.6875 C0.51952735 4.86864114 0 3.01490557 0 0 Z " fill="#04574F" transform="translate(635,864)"/>
<path d="M0 0 C7.42857143 -0.28571429 7.42857143 -0.28571429 11 2 C11.125 5.375 11.125 5.375 11 9 C9 11 9 11 6.8359375 11.1953125 C4.55729167 11.13020833 2.27864583 11.06510417 0 11 C0 7.37 0 3.74 0 0 Z " fill="#F0F7F7" transform="translate(658,860)"/>
<path d="M0 0 C0 0.33 0 0.66 0 1 C-5.17295761 2.06305116 -10.12504306 2.1165001 -15.375 2.0625 C-18.22125 2.041875 -21.0675 2.02125 -24 2 C-24 11.24 -24 20.48 -24 30 C-27.96 30 -31.92 30 -36 30 C-36 29.34 -36 28.68 -36 28 C-32.7 28 -29.4 28 -26 28 C-26.00523682 27.21761963 -26.01047363 26.43523926 -26.01586914 25.62915039 C-26.03657106 22.10694167 -26.04963838 18.5847457 -26.0625 15.0625 C-26.07087891 13.83080078 -26.07925781 12.59910156 -26.08789062 11.33007812 C-26.09111328 10.16025391 -26.09433594 8.99042969 -26.09765625 7.78515625 C-26.10289307 6.70113525 -26.10812988 5.61711426 -26.11352539 4.50024414 C-26 2 -26 2 -25 1 C-16.7135269 -0.15724883 -8.34800068 -0.12118066 0 0 Z " fill="#01453D" transform="translate(365,790)"/>
<path d="M0 0 C0.75667969 0.0928125 1.51335938 0.185625 2.29296875 0.28125 C0.92955966 4.11797911 -0.87634336 7.00373172 -3.26953125 10.28125 C-7.32436126 16.44762012 -7.78777654 22.02570868 -7.70703125 29.28125 C-9.35703125 29.28125 -11.00703125 29.28125 -12.70703125 29.28125 C-12.70703125 25.32125 -12.70703125 21.36125 -12.70703125 17.28125 C-12.37703125 17.28125 -12.04703125 17.28125 -11.70703125 17.28125 C-11.70703125 20.91125 -11.70703125 24.54125 -11.70703125 28.28125 C-11.04703125 28.28125 -10.38703125 28.28125 -9.70703125 28.28125 C-9.73023438 27.54519531 -9.7534375 26.80914063 -9.77734375 26.05078125 C-9.79539062 25.07496094 -9.8134375 24.09914063 -9.83203125 23.09375 C-9.85523438 22.13082031 -9.8784375 21.16789063 -9.90234375 20.17578125 C-9.63816068 16.2605881 -8.71223766 13.40244176 -6.08203125 10.46875 C-5.62828125 10.076875 -5.17453125 9.685 -4.70703125 9.28125 C-5.36703125 8.95125 -6.02703125 8.62125 -6.70703125 8.28125 C-7.03703125 9.27125 -7.36703125 10.26125 -7.70703125 11.28125 C-8.03703125 10.62125 -8.36703125 9.96125 -8.70703125 9.28125 C-7.83342369 7.76819773 -6.93225362 6.27103362 -6.01953125 4.78125 C-5.27123047 3.52828125 -5.27123047 3.52828125 -4.5078125 2.25 C-2.70703125 0.28125 -2.70703125 0.28125 0 0 Z " fill="#053D36" transform="translate(598.70703125,855.71875)"/>
<path d="M0 0 C0.66 0 1.32 0 2 0 C2 8.91 2 17.82 2 27 C-1.79092507 25.10453747 -2.53011419 24.65924034 -4.625 21.375 C-5.78450952 19.49804324 -5.78450952 19.49804324 -7 18 C-7.66 18 -8.32 18 -9 18 C-9 17.34 -9 16.68 -9 16 C-8.01 15.67 -7.02 15.34 -6 15 C-3.9375 16.375 -3.9375 16.375 -2 18 C-1.34 18.33 -0.68 18.66 0 19 C0 12.73 0 6.46 0 0 Z " fill="#035B55" transform="translate(519,857)"/>
<path d="M0 0 C0.33 1.32 0.66 2.64 1 4 C1.99 4 2.98 4 4 4 C3.67 9.94 3.34 15.88 3 22 C1.68 22.33 0.36 22.66 -1 23 C-1.1567564 15.28410183 -0.67453101 7.68483539 0 0 Z " fill="#0E5A52" transform="translate(384,862)"/>
<path d="M0 0 C0.91007812 0.00902344 1.82015625 0.01804687 2.7578125 0.02734375 C3.45648438 0.03894531 4.15515625 0.05054688 4.875 0.0625 C4.875 0.3925 4.875 0.7225 4.875 1.0625 C2.235 1.0625 -0.405 1.0625 -3.125 1.0625 C-3.125 1.7225 -3.125 2.3825 -3.125 3.0625 C-1.8875 3.000625 -0.65 2.93875 0.625 2.875 C3.65711302 2.85887174 4.69748296 2.95598977 7.375 4.5625 C7.87 5.0575 8.365 5.5525 8.875 6.0625 C8.545 6.7225 8.215 7.3825 7.875 8.0625 C7.33875 7.5675 6.8025 7.0725 6.25 6.5625 C3.17389257 4.61969531 1.45610811 4.54025507 -2.125 5.0625 C-5.47135797 7.29340531 -6.413384 9.54617069 -7.375 13.3125 C-7.6225 14.55 -7.87 15.7875 -8.125 17.0625 C-8.455 17.0625 -8.785 17.0625 -9.125 17.0625 C-9.26785714 9.63392857 -9.26785714 9.63392857 -8.125 6.0625 C-8.785 6.0625 -9.445 6.0625 -10.125 6.0625 C-10.125 6.7225 -10.125 7.3825 -10.125 8.0625 C-10.785 7.7325 -11.445 7.4025 -12.125 7.0625 C-6.34908207 -0.08139849 -6.34908207 -0.08139849 0 0 Z " fill="#063F37" transform="translate(360.125,855.9375)"/>
<path d="M0 0 C0.33 0 0.66 0 1 0 C1.66 6.6 2.32 13.2 3 20 C1.02 20 -0.96 20 -3 20 C-2.88581333 17.41577541 -2.75907638 14.83320487 -2.625 12.25 C-2.5940625 11.52039063 -2.563125 10.79078125 -2.53125 10.0390625 C-2.3251506 6.26057344 -2.08487157 3.22053332 0 0 Z " fill="#08544B" transform="translate(426,865)"/>
<path d="M0 0 C1.90389849 2.85584773 2.69462177 4.9311762 3.625 8.1875 C3.88539063 9.08855469 4.14578125 9.98960937 4.4140625 10.91796875 C4.60742188 11.60503906 4.80078125 12.29210937 5 13 C1.7 13 -1.6 13 -5 13 C-2.05357143 3.89285714 -2.05357143 3.89285714 0 0 Z " fill="#E1F1F0" transform="translate(632,862)"/>
<path d="M0 0 C1 3 1 3 0.875 6.875 C0.86070073 10.76440096 1.23568351 13.06291373 4 16 C6.67778278 17.00878996 9.16016598 17.48789878 12 18 C12 18.33 12 18.66 12 19 C4.73846154 19.49230769 4.73846154 19.49230769 1 17 C0.34 16.34 -0.32 15.68 -1 15 C0.15173355 17.46800047 1.04783565 19.04783565 3 21 C-0.09321692 20.77905593 -1.05759787 19.94080219 -3.25 17.6875 C-6.19262431 13.00918714 -5.30874059 7.30004683 -5 2 C-4.67 2 -4.34 2 -4 2 C-3.95101563 2.63808594 -3.90203125 3.27617188 -3.8515625 3.93359375 C-3.77679688 4.75988281 -3.70203125 5.58617187 -3.625 6.4375 C-3.55539062 7.26121094 -3.48578125 8.08492187 -3.4140625 8.93359375 C-3.27742188 9.61550781 -3.14078125 10.29742188 -3 11 C-2.34 11.33 -1.68 11.66 -1 12 C-1.01160156 11.30132813 -1.02320313 10.60265625 -1.03515625 9.8828125 C-1.04417969 8.97273437 -1.05320312 8.06265625 -1.0625 7.125 C-1.07410156 6.22007812 -1.08570313 5.31515625 -1.09765625 4.3828125 C-1 2 -1 2 0 0 Z " fill="#073D34" transform="translate(322,863)"/>
<path d="M0 0 C2.84239568 0.25132762 3.825868 0.80356345 5.73828125 2.9609375 C6.25777344 3.75757813 6.77726563 4.55421875 7.3125 5.375 C7.84488281 6.16648437 8.37726562 6.95796875 8.92578125 7.7734375 C10 10 10 10 9 13 C7.68 11.35 6.36 9.7 5 8 C5.680625 9.11375 6.36125 10.2275 7.0625 11.375 C8.22265625 13.2734375 8.22265625 13.2734375 9 15 C8.67 15.66 8.34 16.32 8 17 C6.67683464 15.27898082 5.36685476 13.54781907 4.0625 11.8125 C3.33160156 10.84957031 2.60070312 9.88664063 1.84765625 8.89453125 C0.06703807 6.10502159 -0.72688307 4.2715921 -1 1 C-0.67 0.67 -0.34 0.34 0 0 Z " fill="#08433B" transform="translate(577,856)"/>
<path d="M0 0 C0.33 0 0.66 0 1 0 C1.33 4.29 1.66 8.58 2 13 C5.63 13.33 9.26 13.66 13 14 C13 14.33 13 14.66 13 15 C7.06 15.495 7.06 15.495 1 16 C1 18.97 1 21.94 1 25 C0.34 25 -0.32 25 -1 25 C-1.02886984 21.02084841 -1.04675406 17.04172347 -1.0625 13.0625 C-1.07087891 11.92619141 -1.07925781 10.78988281 -1.08789062 9.61914062 C-1.09111328 8.53955078 -1.09433594 7.45996094 -1.09765625 6.34765625 C-1.10289307 5.34742432 -1.10812988 4.34719238 -1.11352539 3.31665039 C-1 1 -1 1 0 0 Z " fill="#005B55" transform="translate(686,859)"/>
<path d="M0 0 C1.65 0 3.3 0 5 0 C4.67 2.64 4.34 5.28 4 8 C3.34 8 2.68 8 2 8 C2 10.97 2 13.94 2 17 C1.67 17 1.34 17 1 17 C0.63455089 15.10630916 0.28310825 13.20991218 -0.0625 11.3125 C-0.25972656 10.25675781 -0.45695312 9.20101562 -0.66015625 8.11328125 C-0.99034946 5.08840784 -0.77474558 2.92019489 0 0 Z " fill="#10655C" transform="translate(447,857)"/>
<path d="M0 0 C0.99 0 1.98 0 3 0 C3.66 1.65 4.32 3.3 5 5 C6.0725 5.144375 7.145 5.28875 8.25 5.4375 C10.91662949 5.83749442 13.41399729 6.27591924 16 7 C14.18884044 8.81115956 11.38721773 8.38199448 8.9375 8.5625 C7.83277344 8.64628906 6.72804688 8.73007812 5.58984375 8.81640625 C4.73519531 8.87699219 3.88054687 8.93757812 3 9 C3 8.34 3 7.68 3 7 C1.70766393 5.62689293 0.37562854 4.28965176 -1 3 C-0.67 2.01 -0.34 1.02 0 0 Z " fill="#075C54" transform="translate(351,876)"/>
<path d="M0 0 C1.65 0 3.3 0 5 0 C6.61050328 10.97592998 6.61050328 10.97592998 4.0625 15.25 C3.381875 15.8275 2.70125 16.405 2 17 C1.79325056 11.21101581 2.40837921 6.57067277 4 1 C2.68 1.33 1.36 1.66 0 2 C0 1.34 0 0.68 0 0 Z " fill="#074B43" transform="translate(448,856)"/>
<path d="M0 0 C0.66 0.33 1.32 0.66 2 1 C1.855625 1.53625 1.71125 2.0725 1.5625 2.625 C0.9309285 5.09661796 0.9309285 5.09661796 0.625 8.0625 C-0.02579704 11.1212461 -0.58845267 12.11270209 -3 14 C-2.67 12.68 -2.34 11.36 -2 10 C-2.99 10.33 -3.98 10.66 -5 11 C-3.77472971 6.94718288 -2.30119506 3.55639236 0 0 Z " fill="#054239" transform="translate(446,859)"/>
<path d="M0 0 C0.33 0 0.66 0 1 0 C1.33 5.61 1.66 11.22 2 17 C0.02 17 -1.96 17 -4 17 C-3.34 16.67 -2.68 16.34 -2 16 C-1.52402634 13.29400158 -1.15906371 10.66404596 -0.875 7.9375 C-0.74544922 6.79958008 -0.74544922 6.79958008 -0.61328125 5.63867188 C-0.40060483 3.76003014 -0.19924541 1.88011364 0 0 Z " fill="#013B32" transform="translate(453,868)"/>
<path d="M0 0 C0.33 0 0.66 0 1 0 C1.35546887 3.19921982 1.30822996 4.57914756 -0.625 7.21875 C-3 9 -3 9 -6.015625 8.953125 C-7.61664062 8.60507812 -7.61664062 8.60507812 -9.25 8.25 C-10.32765625 8.02828125 -11.4053125 7.8065625 -12.515625 7.578125 C-13.33546875 7.38734375 -14.1553125 7.1965625 -15 7 C-15 6.67 -15 6.34 -15 6 C-14.25234375 5.93941406 -13.5046875 5.87882813 -12.734375 5.81640625 C-11.74953125 5.73261719 -10.7646875 5.64882813 -9.75 5.5625 C-8.77546875 5.48128906 -7.8009375 5.40007813 -6.796875 5.31640625 C-4.43538247 5.04925416 -2.28098935 4.64628032 0 4 C0 2.68 0 1.36 0 0 Z " fill="#033F36" transform="translate(673,866)"/>
<path d="M0 0 C0.66 0 1.32 0 2 0 C1.98839844 0.68707031 1.97679687 1.37414062 1.96484375 2.08203125 C1.95582031 2.98308594 1.94679688 3.88414062 1.9375 4.8125 C1.92589844 5.70582031 1.91429687 6.59914063 1.90234375 7.51953125 C1.88990033 10.13413791 1.88990033 10.13413791 3 13 C1.68 13.33 0.36 13.66 -1 14 C-1.02694851 12.04174127 -1.04637218 10.08337774 -1.0625 8.125 C-1.07410156 7.03445313 -1.08570313 5.94390625 -1.09765625 4.8203125 C-1 2 -1 2 0 0 Z " fill="#045C54" transform="translate(350,862)"/>
<path d="M0 0 C1.98 0 3.96 0 6 0 C5.34 1.65 4.68 3.3 4 5 C1.69 5.33 -0.62 5.66 -3 6 C-2.01 4.02 -1.02 2.04 0 0 Z " fill="#0C574E" transform="translate(482,877)"/>
<path d="M0 0 C2.47346304 2.47346304 2.98313144 3.70761168 3.1875 7.25 C3.125625 8.1575 3.06375 9.065 3 10 C0.03595495 7.19195732 -2.44499019 4.81684226 -4 1 C-2 0 -2 0 0 0 Z " fill="#044E46" transform="translate(507,863)"/>
<path d="M0 0 C0.66 0.33 1.32 0.66 2 1 C2 4.3 2 7.6 2 11 C1.01 10.67 0.02 10.34 -1 10 C-1.125 2.25 -1.125 2.25 0 0 Z " fill="#015852" transform="translate(319,864)"/>
<path d="M0 0 C2.89932357 2.39509338 3.50168276 4.31245243 4 8 C2.02 8 0.04 8 -2 8 C-1.33333333 5.33333333 -0.66666667 2.66666667 0 0 Z " fill="#084039" transform="translate(642,877)"/>
<path d="M0 0 C2.125 0.375 2.125 0.375 4 1 C4 2.65 4 4.3 4 6 C2.68 6.33 1.36 6.66 0 7 C0 5.68 0 4.36 0 3 C-0.66 2.67 -1.32 2.34 -2 2 C-1.34 1.34 -0.68 0.68 0 0 Z " fill="#02504A" transform="translate(701,861)"/>
<path d="M0 0 C0.33 0.66 0.66 1.32 1 2 C0.67 2.66 0.34 3.32 0 4 C0.66 4 1.32 4 2 4 C2.33 3.34 2.66 2.68 3 2 C2.25 6.75 2.25 6.75 0 9 C0 8.01 0 7.02 0 6 C-0.66 6 -1.32 6 -2 6 C-2.33 6.99 -2.66 7.98 -3 9 C-2.5020163 5.26512223 -2.12508244 3.18762365 0 0 Z " fill="#033E37" transform="translate(403,865)"/>
<path d="M0 0 C0.66 0.33 1.32 0.66 2 1 C1.01 2.485 1.01 2.485 0 4 C0 5.32 0 6.64 0 8 C-1.32 8.33 -2.64 8.66 -4 9 C-4.33 8.34 -4.66 7.68 -5 7 C-3.56742037 4.27127689 -2.18277634 2.18277634 0 0 Z " fill="#074B43" transform="translate(322,857)"/>
<path d="M0 0 C0.99 0 1.98 0 3 0 C3.33 0.99 3.66 1.98 4 3 C3.01 3.495 3.01 3.495 2 4 C1.34444881 6.52733235 1.34444881 6.52733235 1 9 C0.34 9 -0.32 9 -1 9 C-1.09765625 2.84765625 -1.09765625 2.84765625 -1 1 C-0.67 0.67 -0.34 0.34 0 0 Z " fill="#004940" transform="translate(386,857)"/>
<path d="M0 0 C0.66 0 1.32 0 2 0 C1.74438677 2.3431213 1.40729228 4.67843403 1 7 C0.01 7.495 0.01 7.495 -1 8 C-1 7.34 -1 6.68 -1 6 C-1.66 6 -2.32 6 -3 6 C-3 5.01 -3 4.02 -3 3 C-2.01 3 -1.02 3 0 3 C0 2.01 0 1.02 0 0 Z " fill="#07524A" transform="translate(401,871)"/>
<path d="M0 0 C0.33 0 0.66 0 1 0 C0.67 4.95 0.34 9.9 0 15 C-0.33 15 -0.66 15 -1 15 C-1.22134176 12.87631556 -1.42670007 10.75095976 -1.625 8.625 C-1.74101562 7.44164062 -1.85703125 6.25828125 -1.9765625 5.0390625 C-1.98429687 4.03617188 -1.99203125 3.03328125 -2 2 C-1.34 1.34 -0.68 0.68 0 0 Z " fill="#003A31" transform="translate(429,866)"/>
<path d="M0 0 C2.86724686 0.57344937 3.8614515 0.8614515 6 3 C5.67 3.99 5.34 4.98 5 6 C5 5.34 5 4.68 5 4 C3.02 4.99 3.02 4.99 1 6 C0.34 5.01 -0.32 4.02 -1 3 C-0.34 3 0.32 3 1 3 C0.67 2.01 0.34 1.02 0 0 Z " fill="#013E34" transform="translate(698,857)"/>
<path d="M0 0 C1 2 1 2 0.5 4.0625 C-1 6 -1 6 -4.625 6.75 C-5.73875 6.8325 -6.8525 6.915 -8 7 C-5.42215154 4.35247996 -3.08351902 2.05567935 0 0 Z " fill="#099578" transform="translate(517,105)"/>
<path d="M0 0 C0.99 0 1.98 0 3 0 C3 0.99 3 1.98 3 3 C3.66 3.33 4.32 3.66 5 4 C4.34 4 3.68 4 3 4 C2.67 4.66 2.34 5.32 2 6 C1.01 6.33 0.02 6.66 -1 7 C-0.67 4.69 -0.34 2.38 0 0 Z " fill="#07544D" transform="translate(404,862)"/>
<path d="M0 0 C0.66 0 1.32 0 2 0 C2.67482422 0.69029297 2.67482422 0.69029297 3.36328125 1.39453125 C5.22805833 3.223704 6.73327441 3.84260267 9.1875 4.6875 C9.90292969 4.93886719 10.61835937 5.19023438 11.35546875 5.44921875 C11.89816406 5.63097656 12.44085937 5.81273437 13 6 C10.26980214 7.06528748 9.20701188 7.07998186 6.421875 6.00390625 C5.54015625 5.52824219 4.6584375 5.05257812 3.75 4.5625 C2.85796875 4.08941406 1.9659375 3.61632812 1.046875 3.12890625 C0.37140625 2.75636719 -0.3040625 2.38382813 -1 2 C-0.67 1.34 -0.34 0.68 0 0 Z " fill="#053C33" transform="translate(573,812)"/>
<path d="M0 0 C0 2.31 0 4.62 0 7 C-1.32 6.67 -2.64 6.34 -4 6 C-3.625 3.5625 -3.625 3.5625 -3 1 C-1 0 -1 0 0 0 Z " fill="#06554E" transform="translate(623,877)"/>
<path d="M0 0 C0.66 0 1.32 0 2 0 C2.66 1.65 3.32 3.3 4 5 C2.68 5.33 1.36 5.66 0 6 C-0.38218767 4.34385343 -0.71395102 2.67542976 -1 1 C-0.67 0.67 -0.34 0.34 0 0 Z " fill="#0A514A" transform="translate(577,856)"/>
<path d="M0 0 C1 2 1 2 0.3125 5.0625 C-1 8 -1 8 -3.125 8.875 C-3.74375 8.91625 -4.3625 8.9575 -5 9 C-3.7508258 5.54074837 -2.32472205 2.85306797 0 0 Z " fill="#044037" transform="translate(638,449)"/>
<path d="M0 0 C0 2.97 0 5.94 0 9 C-0.99 8.67 -1.98 8.34 -3 8 C-3.6875 5.6875 -3.6875 5.6875 -4 3 C-1.72413793 0 -1.72413793 0 0 0 Z " fill="#055A54" transform="translate(630,860)"/>
<path d="M0 0 C-0.66 1.65 -1.32 3.3 -2 5 C-3.32 5 -4.64 5 -6 5 C-3.74193548 0 -3.74193548 0 0 0 Z " fill="#065249" transform="translate(601,856)"/>
<path d="M0 0 C0.66 0.33 1.32 0.66 2 1 C2 1.99 2 2.98 2 4 C1.01 4.33 0.02 4.66 -1 5 C-1 4.34 -1 3.68 -1 3 C-3.64 3 -6.28 3 -9 3 C-9 2.67 -9 2.34 -9 2 C-6.03 2 -3.06 2 0 2 C0 1.34 0 0.68 0 0 Z " fill="#085C54" transform="translate(697,856)"/>
</svg>
